<svg id="Layer_1" data-name="Layer 1" xmlns="http://www.w3.org/2000/svg" viewBox="0 0 159.87 109.8"><defs><style>.cls-1{font-size:8.51px;fill:#da2126;stroke-width:0.44px;}.cls-1,.cls-2,.cls-3,.cls-4,.cls-5,.cls-6,.cls-9{stroke:#000;}.cls-1,.cls-11,.cls-2,.cls-20,.cls-22,.cls-3,.cls-4,.cls-5,.cls-6,.cls-8,.cls-9{stroke-miterlimit:10;}.cls-1,.cls-12{font-family:Arial-BoldMT, Arial;font-weight:700;}.cls-10,.cls-11,.cls-2,.cls-20,.cls-22,.cls-6,.cls-9{fill:none;}.cls-2,.cls-22,.cls-3,.cls-4,.cls-5,.cls-8{stroke-width:0.44px;}.cls-3{fill:#576b73;}.cls-23,.cls-4{fill:#fff;}.cls-5,.cls-8{fill:#566873;}.cls-6{stroke-width:0.38px;}.cls-7{fill:#3e80c2;}.cls-8{stroke:#1b1b1b;}.cls-11,.cls-9{stroke-width:0.31px;}.cls-11{stroke:#020202;}.cls-12{font-size:10.75px;fill:#2b2868;}.cls-13{font-size:6.01px;fill:#2a2a68;font-family:ArialRoundedMTBold, Arial Rounded MT Bold;}.cls-14{letter-spacing:-0.06em;}.cls-15{letter-spacing:-0.01em;}.cls-16{letter-spacing:0em;}.cls-17{letter-spacing:-0.05em;}.cls-18{fill:#747575;}.cls-19{fill:#0c0c0c;}.cls-20{stroke:#0c0c0c;stroke-width:0.22px;}.cls-21{fill:#231f20;}.cls-22{stroke:#231f20;}.cls-23{font-size:12.96px;font-family:ColdWarm, Cold Warm;}.cls-24{fill:#939393;}</style></defs><title>REDESIGNED LOGO</title><text class="cls-1" transform="translate(13.16 77.76) rotate(-88.2)">M</text><text class="cls-1" transform="translate(13.4 70.81) rotate(-83.49)">B</text><text class="cls-1" transform="translate(14.09 64.8) rotate(-79.35)">E</text><text class="cls-1" transform="matrix(0.25, -0.97, 0.97, 0.25, 15.11, 59.32)">Y</text><text class="cls-1" transform="translate(16.3 54.67) rotate(-71.28)">A</text><text class="cls-1" transform="matrix(0.37, -0.93, 0.93, 0.37, 18.18, 49.24)"> </text><text class="cls-1" transform="matrix(0.43, -0.9, 0.9, 0.43, 18.98, 47.09)">U</text><text class="cls-1" transform="matrix(0.52, -0.86, 0.86, 0.52, 21.56, 41.67)">N</text><text class="cls-1" transform="translate(24.73 36.54) rotate(-54.8)">I</text><text class="cls-1" transform="matrix(0.63, -0.78, 0.78, 0.63, 26, 34.64)">V</text><text class="cls-1" transform="translate(29.48 30.35) rotate(-45.14)">E</text><text class="cls-1" transform="matrix(0.78, -0.63, 0.63, 0.78, 33.39, 26.4)">R</text><text class="cls-1" transform="translate(38.05 22.61) rotate(-33.31)">S</text><text class="cls-1" transform="translate(42.72 19.61) rotate(-29.51)">I</text><text class="cls-1" transform="matrix(0.9, -0.44, 0.44, 0.9, 44.7, 18.44)">T</text><text class="cls-1" transform="translate(49.26 16.19) rotate(-21.37)">Y</text><text class="cls-1" transform="translate(54.35 14.25) rotate(-18.27)"> </text><text class="cls-1" transform="matrix(0.97, -0.26, 0.26, 0.97, 56.5, 13.47)">O</text><text class="cls-1" transform="matrix(0.98, -0.19, 0.19, 0.98, 62.79, 11.82)">F</text><text class="cls-1" transform="translate(67.84 10.88) rotate(-8.55)"> </text><text class="cls-1" transform="translate(70.12 10.5) rotate(-6.23)">S</text><text class="cls-1" transform="translate(75.6 9.82) rotate(1.13)">C</text><text class="cls-1" transform="translate(81.64 10) rotate(4.37)">I</text><text class="cls-1" transform="translate(83.96 10.14) rotate(7.1)">E</text><text class="cls-1" transform="translate(89.48 10.81) rotate(11)">N</text><text class="cls-1" transform="matrix(0.96, 0.26, -0.26, 0.96, 95.43, 11.96)">C</text><text class="cls-1" transform="matrix(0.94, 0.33, -0.33, 0.94, 101.23, 13.54)">E</text><text class="cls-1" transform="matrix(0.92, 0.38, -0.38, 0.92, 106.52, 15.46)"> </text><text class="cls-1" transform="translate(108.35 16.15) rotate(25.83)">A</text><text class="cls-1" transform="matrix(0.86, 0.52, -0.52, 0.86, 113.77, 18.77)">N</text><text class="cls-1" transform="translate(118.92 21.87) rotate(36.89)">D</text><text class="cls-1" transform="matrix(0.75, 0.66, -0.66, 0.75, 123.7, 25.54)"> </text><text class="cls-1" transform="translate(125.45 26.99) rotate(44.73)">T</text><text class="cls-1" transform="translate(129.07 30.56) rotate(50.21)">E</text><text class="cls-1" transform="translate(132.62 34.79) rotate(56.08)">C</text><text class="cls-1" transform="translate(135.98 39.77) rotate(61.99)">H</text><text class="cls-1" transform="translate(138.81 45.09) rotate(67.58)">N</text><text class="cls-1" transform="translate(141.11 50.64) rotate(72.9)">O</text><text class="cls-1" transform="translate(143 56.88) rotate(77.38)">L</text><text class="cls-1" transform="translate(144.14 61.84) rotate(81.41)">O</text><text class="cls-1" transform="translate(145.11 68.28) rotate(85.43)">G</text><text class="cls-1" transform="translate(145.62 74.81) rotate(88.75)">Y</text><polygon class="cls-2" points="3.14 85.87 38.62 85.87 38.62 100.12 3.14 100.12 9.25 92.99 3.14 85.87"/><polygon class="cls-2" points="156.4 85.87 120.92 85.87 120.92 100.12 156.4 100.12 150.29 92.99 156.4 85.87"/><polygon class="cls-3" points="14.19 91.68 38.62 85.87 38.62 100.12 14.19 100.12 14.19 91.68"/><polygon class="cls-3" points="120.92 85.87 120.92 100.12 145.34 91.68 120.92 85.87"/><rect class="cls-4" x="14.19" y="91.68" width="131.15" height="13.23"/><path class="cls-5" d="M95.47,56.5H65.07A14.54,14.54,0,0,1,66,77.73H94.53a14.53,14.53,0,0,1,.94-21.23Z"/><polygon class="cls-6" points="55.65 50.6 53.41 53.41 53.41 57.88 56.11 60.17 57.88 57.99 57.88 53.41 55.65 50.6"/><polygon class="cls-6" points="56.14 60.69 53.91 63.5 53.91 67.97 56.6 70.26 58.38 68.08 58.38 63.5 56.14 60.69"/><polygon class="cls-6" points="104.94 50.6 102.7 53.41 102.7 57.88 105.4 60.17 107.17 57.99 107.17 53.41 104.94 50.6"/><polygon class="cls-6" points="105.44 60.69 103.2 63.5 103.2 67.97 105.89 70.26 107.67 68.08 107.67 63.5 105.44 60.69"/><polygon class="cls-5" points="66.24 50.52 56.18 50.52 61.13 55.19 66.24 55.19 66.24 50.52"/><rect class="cls-5" x="67.64" y="50.52" width="25.65" height="4.66"/><polygon class="cls-5" points="94.68 50.52 94.68 55.19 100.31 55.19 104.42 50.52 94.68 50.52"/><rect class="cls-7" x="59.79" y="78.88" width="41.5" height="12.14"/><polygon class="cls-8" points="34.06 35.16 35.6 35.26 32.8 52.94 39.05 43.21 35.23 64.01 37.2 64.01 33.38 76.64 32.33 64.01 34.43 64.01 37.32 47.4 31.42 57.32 34.06 35.16"/><line class="cls-9" x1="81.13" y1="37.97" x2="80.7" y2="19.19"/><line class="cls-10" x1="98.84" y1="36.83" x2="99" y2="18.07"/><path class="cls-9" d="M63.35,18.59V37.14s1.73,2,9.26,0c0,0,5.19-1.48,8.17.91a2.38,2.38,0,0,1,1.57,1.76h19.16a7.81,7.81,0,0,1-2.67-3s-.94,2.67-8.17.94c0,0-8.48-2.35-11.3,2H60.68L59.89,20a4.86,4.86,0,0,0,3.46-1.44c1.1,2,7.69.6,7.69.6,7.7-2.34,9.66,0,9.66,0,2.75-2.5,7.77-1.12,7.77-1.12,8.48,2.52,10.53,0,10.53,0a8.09,8.09,0,0,0,2.51,3l.14,18.9"/><path class="cls-11" d="M60.68,39.81a9.81,9.81,0,0,0,2.67-2.67"/><line class="cls-11" x1="98.84" y1="36.83" x2="99" y2="18.07"/><text class="cls-12" transform="translate(62.24 49.4) scale(1.26 1)">MUST</text><text class="cls-13" transform="translate(18.29 100.77) scale(0.8 1)">CHUO KIKUU CHA S<tspan class="cls-14" x="60.06" y="0">AY</tspan><tspan x="67.37" y="0">ANSI </tspan><tspan class="cls-15" x="83.64" y="0">N</tspan><tspan class="cls-16" x="88.13" y="0">A TEKNO</tspan><tspan class="cls-17" x="115.47" y="0">L</tspan><tspan class="cls-16" x="118.8" y="0">OJIA MBE</tspan><tspan class="cls-14" x="148.02" y="0">Y</tspan><tspan x="151.4" y="0">A</tspan></text><rect class="cls-18" x="126.22" y="51.12" width="0.51" height="23.48"/><rect class="cls-18" x="129.2" y="51.08" width="0.51" height="26.86" transform="translate(-10.76 29.01) rotate(-12.28)"/><polygon class="cls-19" points="131.78 77.39 132.75 77.2 132.6 78.66 131.78 77.39"/><rect class="cls-19" x="129.58" y="65.84" width="0.77" height="2.04" rx="0.38" ry="0.38" transform="translate(-11.24 29.17) rotate(-12.28)"/><rect class="cls-18" x="123.28" y="51.08" width="0.51" height="26.86" transform="translate(230.53 153.82) rotate(-167.72)"/><polygon class="cls-19" points="121.21 77.39 120.24 77.2 120.4 78.66 121.21 77.39"/><rect class="cls-19" x="122.64" y="65.84" width="0.77" height="2.04" rx="0.38" ry="0.38" transform="translate(229.03 158.34) rotate(-167.72)"/><polygon class="cls-19" points="125.95 74.28 126.94 74.29 126.49 75.69 125.95 74.28"/><rect class="cls-19" x="126.05" y="66.72" width="0.85" height="2.24" rx="0.43" ry="0.43"/><path class="cls-20" d="M122.2,71.34l8.45,0a0,0,0,0,0,0-.06l-4-1.09a.62.62,0,0,0-.33,0l-4.09,1.11A0,0,0,0,0,122.2,71.34Z"/><rect class="cls-21" x="126.19" y="53.25" width="0.57" height="1.23" rx="0.29" ry="0.29"/><rect class="cls-21" x="126.92" y="53.58" width="0.57" height="1.23" rx="0.29" ry="0.29" transform="translate(-8.61 28.29) rotate(-12.28)"/><rect class="cls-21" x="125.51" y="53.54" width="0.57" height="1.23" rx="0.29" ry="0.29" transform="translate(237.19 133.82) rotate(-167.72)"/><path class="cls-22" d="M127.46,39.92l-11.41,9.84a.64.64,0,0,0-.22.49l-.16,1.29a.64.64,0,0,0,.12.43l1,1.38a.61.61,0,0,0,.48.24H118a.67.67,0,0,0,.46-.18l4.64-4.12a.5.5,0,0,1,.73.06l.65.79a.47.47,0,0,0,.69,0l1.2-1.1a.43.43,0,0,0,0-.62l-1.25-1.35a.44.44,0,0,1,.07-.65l1-.73.51.32a.41.41,0,0,0,.53-.06l2.23-2.23a1.66,1.66,0,0,0,0-1.81C129,40.87,128.33,39.17,127.46,39.92Z"/><path class="cls-21" d="M127.17,38.39s1.09-.87,1.74,1.35a7.12,7.12,0,0,0,1.39,2.36s1.09,1.75-.73,1.67l-.68-.72-1.43-3.13S126.66,39.12,127.17,38.39Z"/><path class="cls-21" d="M123.56,43.29V42.06a.52.52,0,0,1,.18-.41l1.61-1.33a.48.48,0,0,1,.49-.07l.84.34Z"/><path class="cls-21" d="M127.7,41l-2.33,2a.59.59,0,0,0-.21.41l0,.68a.61.61,0,0,0,.12.4l1,1.33a.81.81,0,0,0,.14.12l.37.27a.62.62,0,0,0,.77,0l2.18-1.88a.6.6,0,0,0,.15-.72l-1.21-2.4A.62.62,0,0,0,127.7,41Z"/><path class="cls-21" d="M119.31,52.33V51a.54.54,0,0,1,.17-.4l2.85-2.77a.55.55,0,0,1,.6-.1,1.29,1.29,0,0,1,.72,1,.45.45,0,0,1-.21.47,36.58,36.58,0,0,0-3.86,3.27A.16.16,0,0,1,119.31,52.33Z"/><path class="cls-21" d="M125.12,48.94V54h2.4s.24-1.16,1.29-1.16V51.19s-1.22-.17-1.29-1.1V48.94A4.07,4.07,0,0,0,125.12,48.94Z"/><text class="cls-23" transform="translate(64.31 89.32) scale(1.26 1)">2012</text><path class="cls-24" d="M62.76,19.57a137.3,137.3,0,0,0,0,17.45c0,.14.23.14.22,0a135.48,135.48,0,0,1,0-17.45c0-.14-.21-.14-.22,0Z"/><path class="cls-24" d="M62,20c-.43,6.1-.74,12.16.27,18.22,0,.14.23.08.21-.05-1-6-.69-12.09-.27-18.17,0-.14-.2-.14-.21,0Z"/><path class="cls-24" d="M60.9,20.29a158.52,158.52,0,0,0,.53,18.62c0,.14.23.14.22,0a158.52,158.52,0,0,1-.53-18.62c0-.14-.21-.14-.22,0Z"/><path class="cls-24" d="M62.64,36.87a.48.48,0,0,0,.38.52c.13,0,.19-.16.06-.21l-.22-.31a.11.11,0,0,0-.22,0Z"/><path class="cls-24" d="M61.47,19.85c-.94,5.88-.17,12,.11,17.89,0,.14.23.14.22,0-.28-5.88-1-12-.12-17.83,0-.14-.19-.2-.21-.06Z"/><path class="cls-24" d="M59.87,20.59q.5,9.3,1.11,18.6c0,.14.23.14.22,0q-.62-9.3-1.11-18.6c0-.14-.23-.14-.22,0Z"/><path class="cls-24" d="M60.33,20.15a8,8,0,0,0,.09,2.07c0,.14.24.08.21-.06a7.52,7.52,0,0,1-.08-2c0-.14-.2-.14-.22,0Z"/><path class="cls-24" d="M62.49,19.29a80.74,80.74,0,0,0,0,18.45c0,.14.24.14.22,0a80.74,80.74,0,0,1,0-18.45c0-.14-.21-.14-.22,0Z"/><path class="cls-24" d="M60.36,21.9a18.27,18.27,0,0,0,.35,5.85c0,.13.24.08.21-.06a18.18,18.18,0,0,1-.34-5.79c0-.14-.21-.14-.22,0Z"/><path class="cls-24" d="M79.41,39.49c-6-1.1-12.13.32-18.21-.27-.14,0-.14.2,0,.21,6.07.59,12.12-.83,18.16.27.13,0,.19-.18,0-.21Z"/><path class="cls-24" d="M79.47,39.1A38,38,0,0,0,72,38.34c-3.42,0-6.79,1-10.2.35-.13,0-.19.19-.06.21,2.65.48,5.11,0,7.75-.23a37.89,37.89,0,0,1,10,.64c.14,0,.2-.18.06-.21Z"/><path class="cls-24" d="M79.79,38.8a15.14,15.14,0,0,0-7.22-1c-3.23.26-7.11,1.14-10.31.41-.13,0-.19.18,0,.21,2.55.59,5.32,0,7.91-.21,1.41-.11,2.88-.35,4.29-.34A17.49,17.49,0,0,1,79.73,39c.14.05.19-.16.06-.21Z"/><path class="cls-24" d="M80.35,38.34c-1,.06-1.9-.87-2.78-1.2a6,6,0,0,0-2.39-.26,40.91,40.91,0,0,0-5.47.95c-.13,0-.07.23.06.21a26.72,26.72,0,0,1,6.12-1c1.75.09,2.83,1.57,4.46,1.48a.11.11,0,0,0,0-.22Z"/><path class="cls-24" d="M66,38.1l-2.9-.47c-.14,0-.2.18-.06.21l2.9.48c.14,0,.2-.19.06-.22Z"/><path class="cls-24" d="M79.8,39.09c-3-2-8.16-1.23-11.44-.64-.14,0-.08.23,0,.21,3.15-.57,8.46-1.28,11.28.62.12.08.23-.11.11-.19Z"/><path class="cls-24" d="M78.24,39.54c-1.36,0-2.69-.08-4-.19a16.28,16.28,0,0,0-3.48.26c-.14,0-.14.23,0,.22a17.27,17.27,0,0,1,4-.19c1.17.11,2.35.1,3.52.12a.11.11,0,0,0,0-.22Z"/><path class="cls-24" d="M81.41,38.49c1.61,0,3.12-.56,4.76-.55,1.92,0,3.83.64,5.75.84,2.16.23,5.49.6,7.15-1.09.1-.1-.06-.26-.16-.16-2.46,2.52-8,.79-11,.38-2.37-.33-4.18.31-6.5.36a.11.11,0,0,0,0,.22Z"/><path class="cls-24" d="M81.63,38.5a19.07,19.07,0,0,1,8.07-.36,49,49,0,0,0,5.56.45.11.11,0,0,0,0-.22c-2.74-.08-5.39-.6-8.11-.83a15.79,15.79,0,0,0-5.58.75.11.11,0,0,0,.06.21Z"/><path class="cls-24" d="M81.84,38.76c1.67.05,3.33-.28,5-.19,1.42.08,2.75.48,4.18.63,3,.29,5.87.75,8.48-1.05.11-.08,0-.27-.11-.19-3.12,2.16-7.45,1.25-10.91.56-2.27-.46-4.25.09-6.63,0a.11.11,0,0,0,0,.22Z"/><path class="cls-24" d="M99.78,38.36c-6,1.81-11.66-.32-17.61.85-.14,0-.08.23,0,.21,6-1.17,11.65,1,17.62-.85a.11.11,0,0,0-.06-.21Z"/><path class="cls-24" d="M100.13,39a4.11,4.11,0,0,0-1.73.24,13.3,13.3,0,0,1-2.44.18c-.14,0-.14.22,0,.21a18,18,0,0,0,1.94-.08,7.62,7.62,0,0,1,2.17-.34c.14,0,.2-.19.06-.21Z"/><path class="cls-24" d="M100.76,39.37a7.43,7.43,0,0,1-1.88-.15c-.14,0-.2.19-.06.21a7.91,7.91,0,0,0,1.94.16.11.11,0,0,0,0-.22Z"/><path class="cls-24" d="M82.33,39.77a31.78,31.78,0,0,1,4.78-.26,9.6,9.6,0,0,0,3.92.07c.13,0,.07-.25-.06-.21-1.49.45-3,0-4.52-.13a35.36,35.36,0,0,0-4.12.31.11.11,0,0,0,0,.22Z"/><path class="cls-24" d="M95.44,39.22q-4.51-.7-9.07-1c-.14,0-.14.21,0,.22q4.53.28,9,1c.14,0,.2-.19.06-.21Z"/><path class="cls-24" d="M99.17,18.88q-.3,9.29-.27,18.59a.11.11,0,0,0,.22,0q0-9.3.27-18.59a.11.11,0,0,0-.22,0Z"/><path class="cls-24" d="M99.35,19.31c.47,6.34-.17,12.63-.16,19a.11.11,0,0,0,.22,0c0-6.34.63-12.63.15-19,0-.14-.22-.14-.21,0Z"/><path class="cls-24" d="M99.61,19.53c.4,6.25-.11,12.45,0,18.7a.11.11,0,0,0,.22,0c-.06-6.24.45-12.45,0-18.7,0-.14-.23-.14-.22,0Z"/><path class="cls-24" d="M99.81,20c1.18,6.05.11,12.43.11,18.56a.11.11,0,0,0,.22,0c0-6.15,1.07-12.55-.12-18.61,0-.14-.23-.08-.21,0Z"/><path class="cls-24" d="M100.19,20.32a30.1,30.1,0,0,1,.49,11,33.07,33.07,0,0,0-.35,7.82c0,.13.24.14.22,0-.38-3.23.43-6.5.71-9.69a30.41,30.41,0,0,0-.86-9.21c0-.14-.24-.08-.21.06Z"/><path class="cls-24" d="M100.54,24.11a33.85,33.85,0,0,1,.08,6.6c0,.14.21.14.22,0a33.85,33.85,0,0,0-.08-6.6c0-.13-.23-.13-.22,0Z"/><path class="cls-24" d="M101.24,29.89c.1,1.39-.49,2.74-.57,4.14-.1,1.71-.1,3.42-.14,5.13,0,.14.21.14.21,0,.05-1.71,0-3.43.14-5.13.1-1.41.68-2.73.58-4.14,0-.14-.23-.14-.22,0Z"/><path class="cls-24" d="M101.42,32.21a27.84,27.84,0,0,0-.49,7.11c0,.14.23.14.22,0a27.37,27.37,0,0,1,.48-7c0-.14-.19-.2-.21-.06Z"/><path class="cls-24" d="M101.17,35.23c.1,1.25.4,2.82-.08,4,0,.13.16.18.21.06.49-1.22.19-2.79.08-4.07,0-.13-.23-.14-.21,0Z"/><path class="cls-24" d="M100.68,20.76c-.16.47.19.72.34,1.13s0,1,.21,1.5c.06.12.25,0,.19-.11-.19-.41,0-.83-.12-1.25s-.56-.77-.41-1.21c0-.13-.17-.19-.21-.06Z"/><path class="cls-24" d="M99.74,21.23c.68,4.24-.11,8.5.28,12.76,0,.13.24.14.22,0-.4-4.28.39-8.56-.29-12.82,0-.14-.23-.08-.21.06Z"/></svg>